<svg version="1.1" id="Layer_1" xmlns="http://www.w3.org/2000/svg" xmlns:xlink="http://www.w3.org/1999/xlink" x="0px" y="0px"
	 width="100%" viewBox="0 0 1024 1024" enable-background="new 0 0 1024 1024" xml:space="preserve">
<path fill="#000000" opacity="1.000000" stroke="none" 
	d="
M328.813629,212.929016 
	C341.947968,194.936081 358.611816,184.151642 381.155029,183.301208 
	C395.134094,182.773834 407.569061,186.846436 419.163757,194.107208 
	C423.714752,196.957092 426.907990,201.358459 430.405121,205.336639 
	C433.566162,208.932495 436.574707,210.087921 441.592773,208.355347 
	C467.715820,199.335831 494.615448,194.690552 522.340576,195.730835 
	C540.814148,196.423965 558.849487,199.847549 576.608704,204.853363 
	C580.901123,206.063232 585.320923,206.692459 589.502258,208.473724 
	C592.491333,209.747070 594.834473,208.035477 596.566406,205.328323 
	C602.460266,196.115372 610.623962,189.499802 620.468506,184.881195 
	C634.046448,178.511017 647.997986,178.609222 662.294312,182.091202 
	C686.378967,187.957184 705.989990,211.023468 709.424866,234.095825 
	C711.269104,246.483734 710.698547,258.579681 707.190430,270.530457 
	C706.402466,273.214844 707.403381,274.976562 708.837280,276.895477 
	C715.598389,285.943298 723.656738,293.937378 730.109436,303.239685 
	C743.137207,322.020538 753.832397,342.036957 762.374023,363.235382 
	C770.980347,384.594391 776.341003,406.731171 779.290039,429.550751 
	C781.366577,445.618561 781.930542,461.731323 781.109619,477.838135 
	C780.417419,491.419312 776.615173,504.602570 774.402100,517.994629 
	C771.200256,537.369873 765.884949,556.026917 757.357361,573.743225 
	C748.897888,591.317871 738.744019,607.843506 726.739197,623.216980 
	C712.774841,641.100098 696.747864,656.825623 678.691467,670.647522 
	C670.488403,676.926819 662.154907,683.148621 653.244751,688.044739 
	C635.114685,698.007263 616.790283,707.828247 596.459900,713.024109 
	C587.803894,715.236328 579.506104,718.700867 570.605896,720.194946 
	C556.073181,722.634521 541.590271,725.428894 526.852539,726.285095 
	C515.000244,726.973694 503.138641,726.858337 491.257843,726.526917 
	C476.202362,726.107117 461.688232,722.586182 447.009735,719.924500 
	C420.700073,715.153687 395.864227,706.172058 372.631989,693.039978 
	C356.411926,683.871582 341.232300,673.140869 326.985901,661.022522 
	C314.005920,649.981445 302.936584,637.365479 292.361115,624.072937 
	C279.628204,608.068665 270.086975,590.255005 261.783997,571.852600 
	C252.613007,551.526367 246.683517,530.059143 243.582382,507.867615 
	C240.892181,488.616577 240.144943,469.289917 240.834976,449.902618 
	C241.022812,444.625458 241.841171,439.349609 242.671478,434.121033 
	C244.199585,424.498352 245.160782,414.796844 247.446030,405.277557 
	C252.041824,386.133514 257.874786,367.522766 266.412811,349.654724 
	C274.117767,333.530121 283.193054,318.356140 294.001404,304.246765 
	C300.956665,295.167297 308.565521,286.550049 316.359375,278.170166 
	C319.517273,274.774811 320.373901,271.445343 319.421112,267.328766 
	C316.695068,255.550934 317.361206,243.906296 320.617828,232.348984 
	C322.503906,225.655396 324.861938,219.149979 328.813629,212.929016 
M409.706970,494.386993 
	C412.667847,494.491272 412.550446,492.152527 412.951019,490.260956 
	C414.533936,482.786499 416.090210,475.361023 419.056458,468.207336 
	C421.651062,461.949921 426.036011,459.664581 432.288696,459.849365 
	C439.158417,460.052429 445.810608,461.525909 452.331635,463.601074 
	C466.053711,467.967743 477.808441,475.700317 488.594116,485.032043 
	C490.747437,486.895081 492.683746,487.774353 495.753235,486.796967 
	C513.732300,481.072174 531.852356,481.928131 549.934448,486.359955 
	C553.477478,487.228333 556.180054,486.809235 559.003784,484.176666 
	C570.237488,473.703461 583.242493,466.053741 597.750854,461.008789 
	C603.440735,459.030273 609.295105,457.885559 615.350952,457.640167 
	C622.292175,457.358887 626.987305,460.116730 630.009766,466.540588 
	C632.899048,472.681305 634.493835,479.312225 637.351562,486.222900 
	C663.053467,472.734161 682.418579,453.924866 694.553955,428.268005 
	C703.524780,409.301453 705.951233,389.170593 703.064758,367.506226 
	C699.344116,370.424652 699.852966,375.103912 696.285950,376.744232 
	C694.402344,375.176910 694.941101,373.212860 694.750671,371.461731 
	C692.941284,354.822662 690.000549,338.430145 682.349426,323.347992 
	C656.887390,273.156952 617.472534,239.752411 562.896484,224.876404 
	C529.569031,215.792221 496.253448,216.956711 463.337830,226.646851 
	C429.986298,236.465363 401.668488,254.763840 378.215759,280.380737 
	C357.551514,302.951752 342.022766,328.409637 335.715027,358.827301 
	C330.892334,382.083893 333.455231,404.175018 345.820129,424.783539 
	C346.305664,425.592773 347.175995,426.351166 346.198853,427.713867 
	C342.069580,426.647736 340.106689,421.956757 335.749481,420.800873 
	C335.255249,422.226135 335.426422,423.306335 335.872131,424.425354 
	C339.840851,434.389130 344.973267,443.687805 351.678314,452.083405 
	C367.003265,471.272339 386.570740,484.683899 409.706970,494.386993 
M267.671051,415.041260 
	C255.795532,465.542572 266.600311,527.239380 274.651917,537.046997 
	C276.026672,535.637695 276.210358,533.755737 276.568390,532.013428 
	C277.971741,525.184082 279.526184,518.416016 281.440460,511.689484 
	C288.031403,488.530121 298.652039,467.429382 313.033112,448.200623 
	C315.603668,444.763580 316.140930,441.782410 314.351807,437.694702 
	C308.423676,424.150208 305.201202,409.930695 304.823181,395.092773 
	C304.080963,365.957428 311.970734,338.894684 324.534912,312.976074 
	C327.304810,307.261993 330.542480,301.774658 333.656006,296.014069 
	C330.551086,295.038208 329.561127,297.231689 328.282715,298.500824 
	C315.918030,310.775879 305.771118,324.797363 297.008575,339.761536 
	C283.391968,363.015198 273.080414,387.634918 267.671051,415.041260 
M747.384949,524.014893 
	C748.068726,525.782166 747.896240,528.003174 750.963623,529.613525 
	C760.564209,495.343872 761.886780,461.038422 756.725281,426.398529 
	C751.215576,389.421173 738.609924,355.200470 715.945435,323.557587 
	C715.776306,325.527466 715.593872,326.034698 715.719971,326.447693 
	C716.496582,328.990967 717.268555,331.540009 718.176941,334.038086 
	C731.901917,371.780579 731.301270,408.976257 713.613892,445.377594 
	C711.789001,449.133392 713.345154,451.343811 715.181091,453.885101 
	C730.381836,474.925995 740.620850,498.255493 747.384949,524.014893 
M478.369873,529.856262 
	C493.422089,516.616394 510.883453,509.385437 530.990601,508.710144 
	C533.070190,508.640259 536.020325,509.222046 536.330139,506.388885 
	C536.693237,503.067444 533.384949,503.250458 531.266296,502.938293 
	C515.762146,500.653992 500.624237,502.405579 486.326447,508.709778 
	C458.401794,521.022339 441.192749,542.077942 434.470398,572.140198 
	C427.966339,601.226013 448.075134,625.462280 468.320221,633.021790 
	C470.170013,633.712524 472.065857,634.418945 473.984772,632.871155 
	C473.875519,632.356201 473.916962,631.783386 473.653809,631.453613 
	C472.825409,630.415588 471.916931,629.434692 470.978882,628.491943 
	C459.859253,617.316833 454.131683,603.620300 453.981781,588.091797 
	C453.765198,565.652100 461.169495,545.981018 478.369873,529.856262 
M400.360840,562.111694 
	C403.780640,564.766541 407.263611,567.344788 410.601257,570.099243 
	C413.511230,572.500793 415.131866,571.434082 415.906982,568.279663 
	C417.221497,562.929932 418.813263,557.686157 421.345215,552.780212 
	C422.606476,550.336426 422.417542,548.165466 421.163605,545.712646 
	C417.817261,539.166687 415.589874,532.182007 413.762604,525.076782 
	C413.104004,522.516052 412.053009,520.852112 409.144257,519.941589 
	C385.446381,512.523621 364.149811,500.907593 346.400238,483.260345 
	C345.769531,482.633270 345.126221,481.635223 343.239929,482.470184 
	C354.564972,514.296875 373.393951,540.654663 400.360840,562.111694 
M676.688721,511.213440 
	C683.670532,498.393494 688.155212,485.503265 687.731323,479.110687 
	C673.651978,492.800354 658.148193,504.154541 640.298584,512.080383 
	C638.144958,513.036682 637.590515,514.663635 637.232788,516.773621 
	C635.583862,526.499878 632.861206,535.888489 628.126892,544.622192 
	C625.037292,550.321838 626.029297,557.714111 630.502136,563.149780 
	C641.212219,558.092896 665.096863,531.362061 676.688721,511.213440 
M533.466492,649.824829 
	C539.282043,648.401978 545.005981,646.735352 550.359192,643.958252 
	C552.855408,642.663391 555.337158,640.960449 558.015137,640.462463 
	C569.123779,638.396667 577.753967,632.236816 585.716003,624.724976 
	C588.734253,621.877380 590.303284,618.777466 588.741638,614.490845 
	C582.994202,615.260193 577.975220,617.397339 573.418701,620.989258 
	C564.360474,628.129944 554.451233,627.938782 544.329346,623.617004 
	C538.363037,621.069580 532.938904,622.184265 529.489014,627.577148 
	C527.171875,631.199402 525.177002,635.119324 523.658936,639.140503 
	C521.193542,645.671143 525.926636,651.179016 533.466492,649.824829 
M597.442261,512.035706 
	C601.027527,515.731934 604.547241,519.494812 608.218262,523.103760 
	C611.281433,526.115112 613.798889,525.577759 614.571045,521.412109 
	C616.802490,509.373566 617.125549,497.331329 613.588745,485.394867 
	C612.404358,481.397766 610.292358,480.612061 606.497498,482.084320 
	C597.588989,485.540375 589.556946,490.563904 581.494202,495.551544 
	C580.697815,496.044159 579.769409,496.660553 580.062378,498.000549 
	C582.000366,500.112213 586.169678,496.889862 587.055115,500.030518 
	C588.621338,505.585663 593.740784,507.659851 597.442261,512.035706 
M442.436066,658.043396 
	C453.645081,670.809021 468.527344,677.119507 484.292297,681.895447 
	C485.479889,682.255249 486.708832,682.581360 487.483398,681.459778 
	C490.487366,677.109741 495.116302,674.932068 500.333252,672.523621 
	C498.931366,671.823547 498.387329,671.462708 497.789154,671.269409 
	C495.734406,670.605530 493.678223,669.933716 491.591400,669.383118 
	C475.009460,665.007751 459.660767,658.160034 446.379974,647.079346 
	C444.827911,645.784424 443.028503,643.479858 440.903656,645.946655 
	C438.967529,648.194336 437.205811,650.877014 439.097565,654.062805 
	C439.850311,655.330444 440.983093,656.372437 442.436066,658.043396 
M435.052948,520.146301 
	C436.823639,525.009949 438.087524,525.439453 441.265076,521.875122 
	C445.607880,517.003784 450.628174,512.902832 455.499298,508.613892 
	C458.099030,506.324890 461.188263,504.519287 462.970337,501.345184 
	C464.404572,498.790771 464.301392,496.617096 461.861420,494.760376 
	C455.725128,490.090942 449.014923,486.384430 441.863098,483.607361 
	C438.659210,482.363312 436.256195,482.920898 434.884430,487.301819 
	C431.496033,498.123352 434.485748,508.701080 435.052948,520.146301 
M390.831146,624.679382 
	C397.541107,629.437256 404.345581,634.017395 412.791962,635.740295 
	C394.688629,621.071655 376.585266,606.403015 358.481903,591.734436 
	C366.964264,604.698608 378.637451,614.446350 390.831146,624.679382 
M648.673157,614.172058 
	C644.665588,618.721313 639.137695,622.004456 636.129333,628.511230 
	C648.392578,623.548889 675.924255,596.526794 684.154236,581.611389 
	C672.878113,593.394653 660.723633,603.198853 648.673157,614.172058 
M573.589172,579.290588 
	C571.438904,583.626343 567.912354,586.106995 563.187988,586.894592 
	C556.649719,587.984619 552.661255,583.757996 548.428101,579.033386 
	C549.897034,587.263367 556.969360,592.456238 563.818665,590.990540 
	C571.609070,589.323425 576.638794,583.036926 575.115967,576.343872 
	C574.611877,577.329285 574.254395,578.028076 573.589172,579.290588 
M487.426361,591.940552 
	C496.891052,592.859558 502.663361,589.324524 503.112518,581.714722 
	C499.046143,586.410645 494.413269,589.263245 488.476288,588.101868 
	C482.764496,586.984619 479.784271,582.440674 477.192108,577.606689 
	C476.633331,584.994934 480.520874,589.159180 487.426361,591.940552 
M521.125793,589.194092 
	C520.784729,589.544800 520.095337,590.125610 520.152954,590.212891 
	C522.262939,593.407349 525.499451,594.057678 528.990295,593.839661 
	C532.323425,593.631531 532.267334,591.297424 532.109375,588.708862 
	C528.469177,587.691589 525.090454,587.329407 521.125793,589.194092 
M564.693909,568.273926 
	C566.297241,566.117310 566.070862,564.224670 563.700317,562.874268 
	C561.962830,561.884521 560.172729,561.954895 558.687683,563.473328 
	C557.369812,564.820801 557.117737,566.380432 558.191467,567.987183 
	C559.860657,570.484802 561.937256,570.324280 564.693909,568.273926 
M625.927734,207.193344 
	C624.936768,208.238083 623.054260,208.351196 622.620483,210.443604 
	C630.580505,205.954941 638.969666,203.855148 647.720032,202.924744 
	C640.093262,201.275436 633.112305,203.010880 625.927734,207.193344 
M489.921570,571.243530 
	C492.445557,571.733643 494.228424,570.787048 494.688080,568.253479 
	C495.043121,566.296448 494.043182,564.706787 492.219238,563.830872 
	C490.453064,562.982544 488.867004,563.550354 487.917725,565.106750 
	C486.536957,567.370544 486.657593,569.508057 489.921570,571.243530 
M376.906372,205.944290 
	C368.666534,207.042358 361.645294,210.461823 356.115387,216.705048 
	C359.902222,215.103592 362.799713,211.993500 366.700409,210.536972 
	C370.552826,209.098480 374.376648,207.583389 378.213013,206.101913 
	C378.111755,206.015350 378.022186,205.883057 377.906403,205.853546 
	C377.753540,205.814621 377.580170,205.856277 376.906372,205.944290 
z"/>
<path fill="#000000" opacity="1.000000" stroke="none" 
	d="
M755.408813,837.310669 
	C749.695618,850.948730 753.734924,848.721558 738.835938,848.926636 
	C736.061707,848.964905 733.173096,849.565430 730.160339,847.925293 
	C730.811707,843.008911 733.161011,838.622070 735.209106,834.193359 
	C737.051392,830.209595 737.351135,826.611206 735.601135,822.374451 
	C728.751404,805.791382 722.244629,789.066467 714.841125,772.545532 
	C714.683777,775.436707 714.264954,778.343262 714.432983,781.215393 
	C714.661072,785.114197 713.220947,786.904053 709.271240,786.312256 
	C704.338074,785.573181 702.981201,787.834900 703.107605,792.532104 
	C703.385437,802.856873 703.069946,813.196350 703.232544,823.526123 
	C703.293213,827.379517 701.850098,829.010437 698.009521,828.926331 
	C679.192261,828.514465 683.069763,831.710022 682.687927,814.427246 
	C682.518616,806.764832 682.593872,799.095093 682.677734,791.429993 
	C682.711243,788.371094 682.167664,786.130859 678.398865,786.271545 
	C675.598938,786.376038 675.220032,784.328674 675.234863,782.198853 
	C675.253357,779.537109 675.685486,776.849915 675.436462,774.221313 
	C675.072876,770.382996 674.819580,767.201172 680.285950,767.405640 
	C682.799194,767.499695 682.563416,765.053284 682.646484,763.224854 
	C683.102478,753.187866 683.107056,753.188110 692.905640,750.874023 
	C703.242432,748.432800 703.242188,748.432739 703.231018,758.975281 
	C703.229797,760.141846 703.329285,761.317993 703.215149,762.473206 
	C702.830200,766.367554 704.449768,767.765259 708.411133,767.642334 
	C716.224121,767.399963 724.053223,767.718872 731.870972,767.565002 
	C735.083435,767.501831 736.579895,768.669495 737.506409,771.782898 
	C739.877686,779.750916 742.624878,787.607544 745.249756,795.499329 
	C745.925903,797.532288 746.705383,799.530823 747.916687,802.864197 
	C750.737427,794.499329 753.157288,787.346313 755.559631,780.187378 
	C756.459534,777.505493 757.522156,774.856140 758.145996,772.109192 
	C758.969910,768.481201 761.080444,767.405457 764.625122,767.559387 
	C770.064453,767.795593 775.521606,767.621460 782.188904,767.621460 
	C773.037476,791.419556 764.284729,814.180908 755.408813,837.310669 
z"/>
<path fill="#000000" opacity="1.000000" stroke="none" 
	d="
M599.505005,767.072510 
	C602.994568,767.991821 605.692017,769.641602 608.631470,771.651306 
	C612.293762,764.863403 618.464661,768.275635 623.683472,767.742859 
	C625.919556,767.514587 626.315430,769.308838 626.316956,771.122437 
	C626.332092,789.100830 626.348083,807.079163 626.352417,825.057556 
	C626.352783,826.592468 626.195068,827.927917 624.351929,828.615906 
	C619.842773,830.299072 611.486084,828.516357 608.550293,825.068481 
	C593.016174,832.538757 580.728882,831.167419 570.807495,820.856384 
	C561.210327,810.882141 558.891113,795.553528 564.968506,783.371094 
	C570.288025,772.707886 583.102173,763.267883 599.505005,767.072510 
M595.700195,808.714844 
	C599.568481,805.818115 603.344849,802.849060 605.684143,798.445984 
	C607.157166,795.673523 606.487000,793.299438 604.510681,791.163940 
	C602.534851,789.028931 600.071594,788.743408 597.735779,790.269104 
	C595.512024,791.721497 593.622192,791.902832 591.382874,790.395203 
	C589.093323,788.853699 586.921997,789.767456 584.969482,791.285156 
	C582.784119,792.983887 582.528381,795.511902 583.510254,797.621643 
	C585.915710,802.789673 589.362915,807.139893 595.700195,808.714844 
z"/>
<path fill="#000000" opacity="1.000000" stroke="none" 
	d="
M291.852478,747.699951 
	C296.919464,749.173218 301.328583,751.054443 305.340637,753.868958 
	C307.688995,755.516418 308.499725,757.148804 306.335510,759.520569 
	C305.442139,760.499512 304.755005,761.664673 303.951447,762.727966 
	C301.743286,765.649902 300.063324,769.403198 297.169098,771.263428 
	C293.664886,773.515869 290.744904,769.171570 287.385498,768.184875 
	C278.424438,765.552856 269.262421,768.595154 264.212036,776.427368 
	C258.916382,784.640015 259.620667,795.087036 265.959564,802.350342 
	C272.171326,809.467957 281.946991,811.348328 290.463623,807.063721 
	C296.870605,803.840332 296.874908,803.837158 301.082001,809.599548 
	C302.850250,812.021545 304.476501,814.558838 306.384521,816.863892 
	C308.426697,819.330933 307.622864,820.792542 305.309052,822.506287 
	C292.192688,832.221313 272.543793,832.693115 257.713226,823.510315 
	C243.837677,814.918823 236.165970,796.959595 239.412308,780.668335 
	C244.367935,755.799133 266.634308,741.659729 291.852478,747.699951 
z"/>
<path fill="#000000" opacity="1.000000" stroke="none" 
	d="
M461.000793,829.430847 
	C443.255920,825.191711 434.318665,809.692261 435.991028,795.356262 
	C438.045288,777.746826 451.572235,766.043091 468.866150,765.974976 
	C485.769592,765.908386 499.571686,777.447266 502.179382,793.825500 
	C505.731415,816.135010 484.061157,835.099426 461.000793,829.430847 
M459.836853,789.353821 
	C454.424286,796.996216 455.469299,805.055359 462.420074,809.274719 
	C468.675995,813.072205 476.883087,810.746765 480.444000,804.167725 
	C483.198914,799.077820 481.993988,792.396545 477.651123,788.681396 
	C472.469147,784.248230 466.798187,784.297485 459.836853,789.353821 
z"/>
<path fill="#000000" opacity="1.000000" stroke="none" 
	d="
M310.665955,804.025269 
	C308.161652,786.029358 318.521423,770.673950 335.370575,766.942017 
	C353.137878,763.006653 370.589722,772.703369 375.308136,789.132263 
	C380.229584,806.268005 371.012421,823.531921 354.156433,828.749512 
	C335.949768,834.385376 317.163635,825.335510 311.717316,808.290527 
	C311.314056,807.028503 311.034790,805.726807 310.665955,804.025269 
M330.929413,795.465637 
	C329.907959,801.313293 331.919403,806.228821 336.541260,809.179688 
	C340.453766,811.677673 346.740997,811.523560 350.674530,808.833191 
	C355.184357,805.748718 357.217133,800.170776 355.750031,794.905884 
	C354.277618,789.621887 349.632019,785.771545 344.280792,785.399780 
	C338.453094,784.995056 333.724548,788.363586 330.929413,795.465637 
z"/>
<path fill="#000000" opacity="1.000000" stroke="none" 
	d="
M507.750916,805.815918 
	C504.428619,784.346619 515.502441,768.901367 536.042114,766.274109 
	C543.881409,765.271423 551.194519,767.444336 557.954407,771.502441 
	C561.042419,773.356140 561.586365,775.546936 559.117920,778.336182 
	C558.460205,779.079468 557.962708,779.963989 557.386230,780.779846 
	C555.661316,783.221375 554.391479,786.309998 552.089050,787.934082 
	C549.332031,789.878723 547.226440,786.093140 544.555847,785.466064 
	C538.480774,784.039551 532.598022,785.939392 529.548767,790.693604 
	C526.138916,796.010071 526.649170,802.668762 530.824402,807.342468 
	C534.953613,811.964478 540.631775,812.953552 546.726379,810.104858 
	C548.221802,809.405945 549.707642,808.686401 551.306824,807.924438 
	C555.061523,811.347839 557.182922,815.751221 560.014343,819.602844 
	C562.131470,822.482788 559.619690,823.763794 557.723206,825.061707 
	C540.075439,837.140076 515.400269,828.880127 508.549957,808.618591 
	C508.283569,807.830627 508.056976,807.029175 507.750916,805.815918 
z"/>
<path fill="#000000" opacity="1.000000" stroke="none" 
	d="
M404.813049,807.145386 
	C411.686584,813.988098 418.574921,812.257629 425.513184,807.658508 
	C429.279022,811.436584 431.574341,815.896729 434.445465,819.921387 
	C435.967255,822.054565 434.490173,823.330505 432.919006,824.414185 
	C415.292633,836.572205 387.037262,830.498291 381.928131,804.784546 
	C379.302704,791.570862 383.130707,779.797424 394.680573,771.905762 
	C406.383057,763.909851 418.721558,764.339111 431.039948,770.916138 
	C434.765991,772.905579 436.535675,775.250366 432.933044,778.959473 
	C432.246582,779.666321 431.792511,780.596741 431.216522,781.413635 
	C429.683655,783.587769 428.537506,786.286926 426.508087,787.796570 
	C423.795715,789.814148 421.861938,786.287048 419.431519,785.601013 
	C413.633728,783.964233 407.758759,785.465271 404.463318,789.771912 
	C400.416534,795.060242 400.448273,800.281494 404.813049,807.145386 
z"/>
<path fill="#000000" opacity="1.000000" stroke="none" 
	d="
M639.760376,798.031006 
	C639.753479,795.372375 639.661377,793.202881 639.764221,791.042725 
	C639.902161,788.145142 639.245789,786.112244 635.747131,786.238647 
	C633.348755,786.325378 632.656982,784.777649 632.674194,782.649841 
	C632.701172,779.318848 632.743225,775.985046 632.636230,772.656982 
	C632.541016,769.695435 632.837280,767.388000 636.749390,767.471130 
	C639.489868,767.529358 639.590881,765.288513 639.709045,763.179993 
	C640.256226,753.420532 640.261292,753.349854 649.676392,751.122559 
	C652.873535,750.366211 655.999390,749.061279 659.642090,749.251953 
	C661.037109,753.477966 660.385132,757.821899 660.255188,762.043762 
	C660.124512,766.287903 661.957581,768.057373 665.844299,767.533813 
	C671.493469,766.772949 672.874268,769.541016 672.270386,774.432983 
	C672.128601,775.581238 672.254089,776.762329 672.252625,777.928284 
	C672.242981,785.510864 673.246033,786.957764 664.351013,786.317261 
	C660.802917,786.061890 660.293762,788.110535 660.315002,791.021057 
	C660.393982,801.847290 660.173950,812.678223 660.415222,823.499573 
	C660.509521,827.726074 658.926025,829.172424 654.907654,828.939697 
	C651.421570,828.737793 647.914307,828.867432 644.416870,828.901550 
	C641.082825,828.934021 639.681030,827.410095 639.731995,824.008423 
	C639.859253,815.515503 639.766357,807.019287 639.760376,798.031006 
z"/>
<path fill="#000000" opacity="1.000000" stroke="none" 
	d="
M468.440002,390.373260 
	C459.445312,402.600616 448.877472,412.226379 434.154297,416.151855 
	C404.848328,423.965363 379.820251,402.955994 384.034882,372.910919 
	C388.369080,342.013275 405.393738,319.518494 434.217560,306.993561 
	C445.378967,302.143524 457.350769,301.525757 468.332275,308.198334 
	C478.298584,314.254089 482.901306,324.005371 484.167419,335.223877 
	C486.331879,354.402527 480.348236,371.561279 470.284393,387.568665 
	C469.753326,388.413391 469.181671,389.232574 468.440002,390.373260 
M458.635712,352.453888 
	C464.755951,349.541931 467.169250,344.872437 465.155975,339.837952 
	C462.888397,334.167664 456.792633,331.283142 451.380951,333.319519 
	C446.857666,335.021637 444.309967,339.785767 445.342590,344.611115 
	C446.515717,350.093048 451.211884,353.097412 458.635712,352.453888 
M434.227356,369.253754 
	C430.065186,364.385345 428.589417,358.339691 427.663025,351.102173 
	C422.533691,359.324829 423.721527,368.435272 429.688293,374.207031 
	C436.045807,380.356781 444.706635,381.337952 451.738007,376.349030 
	C445.441833,375.177185 439.261505,374.466217 434.227356,369.253754 
z"/>
<path fill="#000000" opacity="1.000000" stroke="none" 
	d="
M616.773010,314.138550 
	C636.082947,328.466217 649.230713,346.520477 653.425171,370.181671 
	C656.120361,385.385223 653.160278,399.254211 640.152039,409.023163 
	C626.790833,419.057068 611.632935,419.318726 597.695251,411.682220 
	C568.498962,395.685455 553.448975,369.989929 552.905090,336.824799 
	C552.522766,313.514771 571.484558,299.339691 594.306885,304.149689 
	C602.413208,305.858154 609.730225,309.210754 616.773010,314.138550 
M574.820557,335.192596 
	C569.598328,339.735718 568.805969,344.182373 572.369934,348.944794 
	C575.992249,353.785187 581.866211,354.711243 586.853882,351.228271 
	C591.127502,348.243927 592.210266,342.773926 589.455200,338.086945 
	C586.804626,333.577728 581.648315,332.369720 574.820557,335.192596 
M596.916321,378.573822 
	C611.272949,374.419006 616.584106,360.870850 607.218506,349.741272 
	C608.863708,366.385101 599.713806,373.467346 584.005493,375.557465 
	C588.834045,378.356812 592.381226,378.895111 596.916321,378.573822 
z"/>
<path fill="#000000" opacity="1.000000" stroke="none" 
	d="
M565.976624,410.103760 
	C562.161011,431.057587 541.610596,435.926880 521.118164,420.558197 
	C516.729980,426.099670 510.994415,429.673859 503.771698,430.805756 
	C493.524933,432.411530 482.428925,426.565094 478.407257,417.132935 
	C476.349548,412.306946 477.086334,408.212433 480.325134,406.474609 
	C483.725983,404.649872 487.092804,406.211060 489.938629,410.932281 
	C493.011871,416.030792 497.086914,418.295532 501.766174,417.367584 
	C507.207214,416.288605 509.636139,412.335419 511.203827,407.465698 
	C511.964874,405.101624 510.686859,404.110779 509.006927,403.128815 
	C506.146637,401.456909 503.080139,400.137115 500.608459,397.816010 
	C493.176666,390.837067 495.032623,379.703888 504.677521,376.615448 
	C515.103943,373.276733 525.989502,372.622650 536.403931,376.547363 
	C544.952087,379.768768 546.679321,389.272827 540.734680,396.185883 
	C538.172302,399.165649 534.816711,401.023865 531.590820,403.042816 
	C529.418579,404.402405 529.227783,405.820160 530.185608,408.025238 
	C532.270447,412.824921 537.321167,416.680481 542.034729,416.690552 
	C547.602844,416.702454 550.917480,413.588226 552.918213,408.695526 
	C554.259033,405.416443 555.438293,401.993317 560.156799,402.656006 
	C564.326538,403.241577 565.391296,406.230133 565.976624,410.103760 
z"/>
</svg>